<svg width="24" height="24" viewBox="0 0 24 24" fill="none" xmlns="http://www.w3.org/2000/svg">
<path d="M12 0C5.37253 0 0 5.37253 0 12C0 18.6275 5.37253 24 12 24C18.6275 24 24 18.6275 24 12C24 5.37253 18.6275 0 12 0Z" fill="#40B3E0"/>
<path d="M17.839 6.90296L15.6957 17.7092C15.6957 17.7092 15.396 18.4587 14.5716 18.099L9.62556 14.307L7.82706 13.4377L4.7995 12.4185C4.7995 12.4185 4.33488 12.2537 4.28988 11.8939C4.24497 11.5342 4.8145 11.3394 4.8145 11.3394L16.8498 6.61815C16.8498 6.61815 17.839 6.18353 17.839 6.90296Z" fill="white"/>
<path d="M9.24542 17.5877C9.24542 17.5877 9.10104 17.5742 8.92113 17.0046C8.74132 16.4351 7.82707 13.4375 7.82707 13.4375L15.0962 8.82126C15.0962 8.82126 15.5159 8.56645 15.5009 8.82126C15.5009 8.82126 15.5758 8.86616 15.351 9.07598C15.1262 9.28588 9.64057 14.2169 9.64057 14.2169" fill="#D2E5F1"/>
<path d="M11.522 15.7609L9.56564 17.5446C9.56564 17.5446 9.41274 17.6606 9.24539 17.5879L9.62002 14.2747" fill="#B5CFE4"/>
</svg>
