<svg width="24" height="24" viewBox="0 0 24 24" fill="none" xmlns="http://www.w3.org/2000/svg">
<rect width="24" height="24" rx="12" fill="#FFCB00"/>
<path d="M12.1456 17.654C11.2963 17.654 10.573 17.5327 9.97563 17.29C9.3783 17.038 8.92097 16.6927 8.60363 16.254C8.29563 15.8153 8.14163 15.3067 8.14163 14.728C8.14163 14.4947 8.16963 14.294 8.22563 14.126C8.29097 13.9487 8.37497 13.7947 8.47763 13.664H11.4736C11.1936 13.7667 10.937 13.8693 10.7036 13.972C10.4703 14.0747 10.2836 14.196 10.1436 14.336C10.013 14.4667 9.94763 14.6393 9.94763 14.854C9.94763 15.0967 10.0223 15.316 10.1716 15.512C10.321 15.6987 10.5543 15.848 10.8716 15.96C11.189 16.072 11.5996 16.128 12.1036 16.128C12.729 16.128 13.3356 16.044 13.9236 15.876C14.521 15.6987 15.0156 15.4747 15.4076 15.204L15.9116 16.618C15.3703 16.9447 14.773 17.2013 14.1196 17.388C13.4663 17.5653 12.8083 17.654 12.1456 17.654ZM7.30163 14.014V13.048H16.6116V14.014H7.30163ZM7.30163 12.082V11.116H16.6116V12.082H7.30163ZM12.1596 11.634C12.4676 11.5127 12.757 11.4007 13.0276 11.298C13.2983 11.1953 13.5176 11.074 13.6856 10.934C13.863 10.794 13.9516 10.6167 13.9516 10.402C13.9516 10.15 13.8816 9.926 13.7416 9.73C13.6016 9.534 13.373 9.37533 13.0556 9.254C12.7476 9.13267 12.3416 9.072 11.8376 9.072C11.3896 9.072 10.9276 9.12333 10.4516 9.226C9.97563 9.32867 9.50897 9.48733 9.05163 9.702L8.63163 8.274C9.11697 8.03133 9.6303 7.84933 10.1716 7.728C10.7223 7.60667 11.259 7.546 11.7816 7.546C12.6216 7.546 13.3356 7.672 13.9236 7.924C14.5116 8.16667 14.9643 8.512 15.2816 8.96C15.599 9.39867 15.7576 9.90733 15.7576 10.486C15.7576 10.7287 15.725 10.9433 15.6596 11.13C15.6036 11.3073 15.5243 11.4753 15.4216 11.634H12.1596Z" fill="black"/>
</svg>
